<svg width="902" height="317" viewBox="0 0 902 317" fill="none" xmlns="http://www.w3.org/2000/svg">
<path d="M103.327 119.659L102.794 118.948C119.481 107.409 129.246 88.0575 129.246 63.9122C129.246 25.7431 103.859 0 65.8664 0C24.8561 0 0 26.4518 0 66.3991C0 102.792 23.4345 130.487 63.2034 130.487C70.3034 130.487 77.0511 129.6 83.088 128.003C87.0258 134.193 81.1358 120.903 83.088 128.003L102.794 118.948C90.8987 114.688 111.444 130.494 103.327 119.659ZM64.9774 112.025C39.5907 112.025 26.4539 93.5618 26.4539 64.623C26.4539 37.1039 40.6559 18.4628 64.0904 18.4628C88.2357 18.4628 102.794 35.8626 102.794 65.6882C102.794 80.7793 98.1769 92.8509 90.7205 101.018C87.8625 96.77 73.8597 113.339 73.1489 109.433L72.7903 111.138L75.5393 113.585C80.8653 116.78 67.8836 103.113 72.7903 111.138C70.3034 111.67 67.6404 112.025 64.9774 112.025ZM202.213 129.955C236.477 129.955 253.164 112.203 253.164 76.162V30.1801C253.164 15.4455 258.136 6.92382 262.751 3.90645V3.54999H220.143V3.90645C224.049 6.92382 229.197 15.6237 229.197 30.1801V78.1163C229.197 100.84 221.386 111.314 204.165 111.314C184.813 111.314 177.535 102.26 177.535 78.1163V30.1801C177.535 15.4455 182.506 6.92382 186.589 3.90645V3.54999H143.448V3.90645C147.887 6.92382 153.035 15.6237 153.035 30.1801V76.162C153.035 112.379 170.611 129.955 202.213 129.955V129.955ZM368.562 92.8509C360.928 103.681 348.5 109.54 332.876 109.54H313.526V69.5947H329.859C339.8 69.5947 346.191 72.7903 349.211 80.7793H349.565L354.713 50.9536C346.724 52.0188 341.754 52.195 327.017 52.195H313.526V20.9497H336.961C350.808 20.9497 360.573 25.3867 364.834 34.0865L365.189 33.9083L362.171 2.13041C358.265 3.01738 350.452 3.54999 343.352 3.54999H279.616V3.90645C284.233 6.92382 289.203 15.4455 289.203 30.1801V100.307C289.203 114.866 284.055 123.564 279.616 126.583V126.937H342.287C352.76 126.937 357.376 127.292 363.945 128.357L368.917 93.0291L368.562 92.8509V92.8509ZM423.064 129.6C451.824 129.246 466.383 113.09 466.383 93.3836C466.383 66.7535 447.564 58.9427 431.764 52.3732C420.223 47.5798 410.282 43.4972 410.282 33.1995C410.282 24.1453 417.205 19.528 430.699 19.528C440.994 19.528 451.114 22.3693 458.748 34.0865H459.103L456.796 4.97164C446.498 2.30863 438.155 1.24345 428.923 1.24345C401.406 1.24345 386.314 17.3976 386.314 34.9735C386.314 59.6514 403.536 66.9317 418.981 73.3229C431.053 78.2924 441.883 82.9097 441.883 95.1596C441.883 104.746 435.668 110.781 421.288 111.138C406.731 111.492 395.19 106.344 384.538 92.4966L384.184 92.6727L387.201 122.498C395.19 127.292 408.684 129.779 423.064 129.6ZM543.078 130.487C582.668 130.487 609.12 103.503 609.12 63.9122C609.12 25.7431 583.733 0 545.741 0C504.73 0 479.874 26.4518 479.874 66.3991C479.874 102.792 503.309 130.487 543.078 130.487ZM544.852 112.025C519.465 112.025 506.328 93.7379 506.328 64.623C506.328 36.9277 520.53 18.4628 543.965 18.4628C568.11 18.4628 582.668 35.6843 582.668 65.6882C582.668 94.0944 566.69 112.025 544.852 112.025V112.025ZM692.028 3.54999V3.90645C693.804 8.69986 691.495 16.1563 688.123 22.0149L674.63 45.6276C672.854 48.8232 670.724 52.0189 668.95 57.1666H668.239C666.463 52.195 664.689 48.8232 662.735 45.6276L649.065 22.0149C645.691 16.1563 643.385 8.69986 644.983 3.90645V3.54999H607.168V3.90645C611.605 7.27819 617.109 14.7346 621.548 22.0149L655.635 78.2925V98.8878C655.635 113.977 649.952 123.564 644.804 126.583V126.937H690.786V126.583C684.928 123.564 679.956 114.155 679.956 98.8878V77.4055L713.51 22.0149C718.127 14.5585 723.275 7.27819 727.714 3.90645V3.54999H692.028V3.54999ZM788.785 130.487C828.376 130.487 854.828 103.503 854.828 63.9122C854.828 25.7431 829.441 0 791.448 0C750.438 0 725.582 26.4518 725.582 66.3991C725.582 102.792 749.016 130.487 788.785 130.487ZM790.559 112.025C765.172 112.025 752.036 93.7379 752.036 64.623C752.036 36.9277 766.238 18.4628 789.672 18.4628C813.817 18.4628 828.376 35.6843 828.376 65.6882C828.376 94.0944 812.398 112.025 790.559 112.025V112.025Z" fill="#1A2B4A"/>
<path d="M65.9414 94.7256C102.083 85.275 117.807 286.854 431.075 181.867C561.016 138.319 630.554 173.33 690.887 199.929C751.217 226.528 802.345 244.72 895.454 167.541" stroke="#1A2B4A" stroke-width="20" stroke-miterlimit="22.9256"/>
<path fill-rule="evenodd" clip-rule="evenodd" d="M202.593 203.087C220.101 209.027 299.386 222.372 311.87 209.862C295.597 224.93 278.868 347.772 262.89 292.547C242.041 220.478 250.413 316.099 212.364 223.554C206.931 210.336 199.753 220.768 202.593 203.087ZM202.593 203.087C218.155 209.688 310.979 207.975 311.87 209.862L202.593 203.087Z" fill="#1A2B4A"/>
<path d="M202.593 203.087C218.155 209.688 310.979 207.975 311.87 209.862M202.593 203.087C220.101 209.027 299.386 222.372 311.87 209.862C295.597 224.93 278.868 347.772 262.89 292.547C242.041 220.478 250.413 316.099 212.364 223.554C206.931 210.336 199.753 220.768 202.593 203.087Z" stroke="#1A2B4A" stroke-width="20" stroke-miterlimit="22.9256"/>
</svg>
