<svg width="127" height="126" viewBox="0 0 127 126" fill="none" xmlns="http://www.w3.org/2000/svg">
<path d="M126 63C126 97.7939 97.7939 126 63 126C28.2061 126 0 97.7939 0 63C0 28.2061 28.2061 0 63 0C97.7939 0 126 28.2061 126 63Z" fill="#FFD65C"/>
<ellipse cx="45.8115" cy="92.4646" rx="17.4561" ry="16.5609" fill="#FFD969"/>
<circle cx="43.126" cy="90.6743" r="14.7705" fill="#FFA64D"/>
<ellipse cx="51.6303" cy="94.7026" rx="19.694" ry="16.1133" fill="#FECC37" fill-opacity="0.22"/>
<ellipse cx="51.3012" cy="41.3885" rx="20.5732" ry="19.5182" fill="#FFD969"/>
<circle cx="48.1361" cy="39.2784" r="17.4081" fill="#FFA64D"/>
<ellipse cx="58.1591" cy="44.0261" rx="23.2108" ry="18.9907" fill="#FECC37" fill-opacity="0.22"/>
<ellipse cx="86.6896" cy="42.9363" rx="14.6896" ry="13.9363" fill="#FFD969"/>
<circle cx="84.4297" cy="41.4297" r="12.4297" fill="#FFA64D"/>
<ellipse cx="91.5861" cy="44.8196" rx="16.5729" ry="13.5596" fill="#FECC37" fill-opacity="0.22"/>
<ellipse cx="86.0621" cy="74.8777" rx="14.6896" ry="13.9363" fill="#FFD969"/>
<circle cx="83.8022" cy="73.3711" r="12.4297" fill="#FFA64D"/>
<ellipse cx="90.9586" cy="76.761" rx="16.5729" ry="13.5596" fill="#FECC37" fill-opacity="0.22"/>
<ellipse cx="52.1932" cy="52.5031" rx="10.1932" ry="10.5724" fill="#FFA64D"/>
<circle cx="52.5" cy="52.5" r="10.5" fill="#FECC37" fill-opacity="0.22"/>
<ellipse cx="92.9249" cy="70.8584" rx="6.92491" ry="8.14162" fill="#FFA64D"/>
<ellipse cx="93.5" cy="70.4017" rx="7.5" ry="8.40167" fill="#FECC37" fill-opacity="0.22"/>
<ellipse cx="94.9249" cy="41.8584" rx="6.92491" ry="8.14162" fill="#FFA64D"/>
<ellipse cx="95.5" cy="41.4017" rx="7.5" ry="8.40167" fill="#FECC37" fill-opacity="0.22"/>
<ellipse cx="27.75" cy="59.641" rx="9.74998" ry="6.64103" fill="#FFD969"/>
<ellipse cx="26.25" cy="58.9231" rx="8.24999" ry="5.92308" fill="#FFA64D"/>
<ellipse cx="31" cy="60.5385" rx="11" ry="6.46154" fill="#FECC37" fill-opacity="0.22"/>
<ellipse cx="75.75" cy="99.5385" rx="9.74998" ry="8.53846" fill="#FFD969"/>
<ellipse cx="74.25" cy="98.6154" rx="8.24999" ry="7.61539" fill="#FFA64D"/>
<ellipse cx="79" cy="100.692" rx="11" ry="8.30769" fill="#FECC37" fill-opacity="0.22"/>
<ellipse cx="104.156" cy="92.9615" rx="10.1562" ry="9.96154" fill="#FFD969"/>
<ellipse cx="102.594" cy="91.8846" rx="8.59373" ry="8.88462" fill="#FFA64D"/>
<ellipse cx="107.542" cy="94.3077" rx="11.4583" ry="9.69231" fill="#FECC37" fill-opacity="0.22"/>
<path fill-rule="evenodd" clip-rule="evenodd" d="M55 125.431C85.774 121.281 109.5 94.9113 109.5 63C109.5 31.0887 85.774 4.71892 55 0.568525C57.7799 0.193606 60.6173 0 63.5 0C98.2939 0 126.5 28.2061 126.5 63C126.5 97.7939 98.2939 126 63.5 126C60.6173 126 57.7799 125.806 55 125.431Z" fill="#1A2B4A"/>
<path fill-rule="evenodd" clip-rule="evenodd" d="M55 125.431C80.6092 121.281 100.353 94.9113 100.353 63C100.353 31.0887 80.6092 4.71892 55 0.568525C57.3134 0.193606 59.6746 0 62.0734 0C91.0278 0 114.5 28.2061 114.5 63C114.5 97.7939 91.0278 126 62.0734 126C59.6746 126 57.3134 125.806 55 125.431Z" fill="#1A2B4A" fill-opacity="0.19"/>
</svg>
